<mxfile host="Electron" agent="Mozilla/5.0 (Windows NT 10.0; Win64; x64) AppleWebKit/537.36 (KHTML, like Gecko) draw.io/24.7.17 Chrome/128.0.6613.36 Electron/32.0.1 Safari/537.36" version="24.7.17">
  <diagram id="C5RBs43oDa-KdzZeNtuy" name="Page-1">
    <mxGraphModel dx="2870" dy="2020" grid="0" gridSize="10" guides="1" tooltips="1" connect="1" arrows="1" fold="1" page="1" pageScale="1" pageWidth="583" pageHeight="827" background="#ffffff" math="0" shadow="1">
      <root>
        <mxCell id="WIyWlLk6GJQsqaUBKTNV-0" />
        <mxCell id="WIyWlLk6GJQsqaUBKTNV-1" parent="WIyWlLk6GJQsqaUBKTNV-0" />
        <mxCell id="tHn3hV1QetHWKN7MrOAW-7" style="edgeStyle=orthogonalEdgeStyle;rounded=0;orthogonalLoop=1;jettySize=auto;html=1;exitX=1;exitY=0.5;exitDx=0;exitDy=0;entryX=0;entryY=0.5;entryDx=0;entryDy=0;strokeColor=#000000;fontStyle=1" edge="1" parent="WIyWlLk6GJQsqaUBKTNV-1" source="tHn3hV1QetHWKN7MrOAW-1" target="tHn3hV1QetHWKN7MrOAW-3">
          <mxGeometry relative="1" as="geometry" />
        </mxCell>
        <mxCell id="tHn3hV1QetHWKN7MrOAW-18" style="edgeStyle=orthogonalEdgeStyle;rounded=0;orthogonalLoop=1;jettySize=auto;html=1;exitX=0.5;exitY=1;exitDx=0;exitDy=0;entryX=0.5;entryY=0;entryDx=0;entryDy=0;strokeColor=#000000;fontStyle=1" edge="1" parent="WIyWlLk6GJQsqaUBKTNV-1" source="tHn3hV1QetHWKN7MrOAW-1" target="tHn3hV1QetHWKN7MrOAW-16">
          <mxGeometry relative="1" as="geometry" />
        </mxCell>
        <mxCell id="tHn3hV1QetHWKN7MrOAW-1" value="&lt;font style=&quot;font-size: 16px;&quot; color=&quot;#080808&quot;&gt;If Punkt&lt;/font&gt;&lt;div style=&quot;line-height: 130%; font-size: 16px;&quot;&gt;&lt;font style=&quot;font-size: 16px;&quot; color=&quot;#080808&quot;&gt;available?&lt;/font&gt;&lt;/div&gt;" style="rhombus;whiteSpace=wrap;html=1;shadow=0;fontFamily=Helvetica;fontSize=12;align=center;strokeWidth=1;spacing=6;spacingTop=-4;fillColor=#d5e8d4;strokeColor=#82b366;gradientColor=#97d077;fontStyle=1" vertex="1" parent="WIyWlLk6GJQsqaUBKTNV-1">
          <mxGeometry x="917" y="332" width="160" height="130" as="geometry" />
        </mxCell>
        <mxCell id="tHn3hV1QetHWKN7MrOAW-3" value="&lt;font style=&quot;font-size: 16px;&quot;&gt;Download &#39;Punkt&#39;&lt;/font&gt;" style="rounded=1;whiteSpace=wrap;html=1;fontSize=12;glass=0;strokeWidth=1;shadow=0;fillColor=#a20025;strokeColor=#6F0000;fontColor=#ffffff;fontStyle=1" vertex="1" parent="WIyWlLk6GJQsqaUBKTNV-1">
          <mxGeometry x="1220" y="375" width="120" height="40" as="geometry" />
        </mxCell>
        <mxCell id="tHn3hV1QetHWKN7MrOAW-22" style="edgeStyle=orthogonalEdgeStyle;rounded=0;orthogonalLoop=1;jettySize=auto;html=1;exitX=0.5;exitY=1;exitDx=0;exitDy=0;entryX=0.5;entryY=0;entryDx=0;entryDy=0;strokeColor=#000000;fontStyle=1" edge="1" parent="WIyWlLk6GJQsqaUBKTNV-1" source="tHn3hV1QetHWKN7MrOAW-10" target="tHn3hV1QetHWKN7MrOAW-21">
          <mxGeometry relative="1" as="geometry" />
        </mxCell>
        <mxCell id="tHn3hV1QetHWKN7MrOAW-10" value="&lt;span style=&quot;text-align: left;&quot;&gt;&lt;font style=&quot;font-size: 16px;&quot;&gt;Load Model&lt;/font&gt;&lt;/span&gt;" style="rounded=1;whiteSpace=wrap;html=1;fontSize=12;glass=0;strokeWidth=1;shadow=0;fillColor=#1ba1e2;fontColor=#ffffff;strokeColor=#006EAF;fontStyle=1" vertex="1" parent="WIyWlLk6GJQsqaUBKTNV-1">
          <mxGeometry x="907" y="675" width="120" height="40" as="geometry" />
        </mxCell>
        <mxCell id="tHn3hV1QetHWKN7MrOAW-13" value="&lt;span style=&quot;text-align: left;&quot;&gt;&lt;font style=&quot;font-size: 16px;&quot;&gt;Download &#39;stopwords&#39;&lt;/font&gt;&lt;/span&gt;" style="rounded=1;whiteSpace=wrap;html=1;fontSize=12;glass=0;strokeWidth=1;shadow=0;fillColor=#a20025;strokeColor=#6F0000;fontColor=#ffffff;fontStyle=1" vertex="1" parent="WIyWlLk6GJQsqaUBKTNV-1">
          <mxGeometry x="1277" y="540" width="120" height="40" as="geometry" />
        </mxCell>
        <mxCell id="tHn3hV1QetHWKN7MrOAW-27" style="edgeStyle=orthogonalEdgeStyle;rounded=0;orthogonalLoop=1;jettySize=auto;html=1;exitX=0.5;exitY=1;exitDx=0;exitDy=0;strokeColor=#000000;fontStyle=1" edge="1" parent="WIyWlLk6GJQsqaUBKTNV-1" source="tHn3hV1QetHWKN7MrOAW-15" target="tHn3hV1QetHWKN7MrOAW-26">
          <mxGeometry relative="1" as="geometry" />
        </mxCell>
        <mxCell id="tHn3hV1QetHWKN7MrOAW-15" value="&lt;font style=&quot;font-size: 16px;&quot;&gt;User input&lt;/font&gt;" style="rounded=1;whiteSpace=wrap;html=1;fontSize=12;glass=0;strokeWidth=1;shadow=0;fillColor=#1ba1e2;fontColor=#ffffff;strokeColor=#006EAF;fontStyle=1" vertex="1" parent="WIyWlLk6GJQsqaUBKTNV-1">
          <mxGeometry x="937" y="925" width="120" height="40" as="geometry" />
        </mxCell>
        <mxCell id="tHn3hV1QetHWKN7MrOAW-19" style="edgeStyle=orthogonalEdgeStyle;rounded=0;orthogonalLoop=1;jettySize=auto;html=1;exitX=1;exitY=0.5;exitDx=0;exitDy=0;entryX=0;entryY=0.5;entryDx=0;entryDy=0;strokeColor=#000000;fontStyle=1" edge="1" parent="WIyWlLk6GJQsqaUBKTNV-1" source="tHn3hV1QetHWKN7MrOAW-16" target="tHn3hV1QetHWKN7MrOAW-13">
          <mxGeometry relative="1" as="geometry" />
        </mxCell>
        <mxCell id="tHn3hV1QetHWKN7MrOAW-20" style="edgeStyle=orthogonalEdgeStyle;rounded=0;orthogonalLoop=1;jettySize=auto;html=1;exitX=0.5;exitY=1;exitDx=0;exitDy=0;entryX=0.5;entryY=0;entryDx=0;entryDy=0;strokeColor=#000000;fontStyle=1" edge="1" parent="WIyWlLk6GJQsqaUBKTNV-1" source="tHn3hV1QetHWKN7MrOAW-16" target="tHn3hV1QetHWKN7MrOAW-10">
          <mxGeometry relative="1" as="geometry" />
        </mxCell>
        <mxCell id="tHn3hV1QetHWKN7MrOAW-16" value="&lt;font style=&quot;font-size: 16px;&quot; color=&quot;#080808&quot;&gt;If &#39;stopwords&#39;&lt;/font&gt;&lt;div style=&quot;font-size: 16px;&quot;&gt;&lt;font style=&quot;font-size: 16px;&quot; color=&quot;#080808&quot;&gt;available?&lt;/font&gt;&lt;br&gt;&lt;/div&gt;" style="rhombus;whiteSpace=wrap;html=1;shadow=0;fontFamily=Helvetica;fontSize=12;align=center;strokeWidth=1;spacing=6;spacingTop=-4;fillColor=#d5e8d4;gradientColor=#97d077;strokeColor=#82b366;fontStyle=1" vertex="1" parent="WIyWlLk6GJQsqaUBKTNV-1">
          <mxGeometry x="1017" y="495" width="160" height="130" as="geometry" />
        </mxCell>
        <mxCell id="tHn3hV1QetHWKN7MrOAW-23" style="edgeStyle=orthogonalEdgeStyle;rounded=0;orthogonalLoop=1;jettySize=auto;html=1;exitX=0.5;exitY=1;exitDx=0;exitDy=0;entryX=0.5;entryY=0;entryDx=0;entryDy=0;strokeColor=#000000;fontStyle=1" edge="1" parent="WIyWlLk6GJQsqaUBKTNV-1" source="tHn3hV1QetHWKN7MrOAW-21" target="tHn3hV1QetHWKN7MrOAW-15">
          <mxGeometry relative="1" as="geometry" />
        </mxCell>
        <mxCell id="tHn3hV1QetHWKN7MrOAW-25" style="edgeStyle=orthogonalEdgeStyle;rounded=0;orthogonalLoop=1;jettySize=auto;html=1;exitX=1;exitY=0.5;exitDx=0;exitDy=0;entryX=0;entryY=0.5;entryDx=0;entryDy=0;strokeColor=#000000;fontStyle=1" edge="1" parent="WIyWlLk6GJQsqaUBKTNV-1" source="tHn3hV1QetHWKN7MrOAW-21" target="tHn3hV1QetHWKN7MrOAW-24">
          <mxGeometry relative="1" as="geometry" />
        </mxCell>
        <mxCell id="tHn3hV1QetHWKN7MrOAW-21" value="&lt;font style=&quot;font-size: 16px;&quot; color=&quot;#080808&quot;&gt;If Model loaded&lt;/font&gt;&lt;div style=&quot;font-size: 16px;&quot;&gt;&lt;font style=&quot;font-size: 16px;&quot; color=&quot;#080808&quot;&gt;successfully?&lt;/font&gt;&lt;br&gt;&lt;/div&gt;" style="rhombus;whiteSpace=wrap;html=1;shadow=0;fontFamily=Helvetica;fontSize=12;align=center;strokeWidth=1;spacing=6;spacingTop=-4;fillColor=#d5e8d4;gradientColor=#97d077;strokeColor=#82b366;fontStyle=1" vertex="1" parent="WIyWlLk6GJQsqaUBKTNV-1">
          <mxGeometry x="1017" y="755" width="160" height="130" as="geometry" />
        </mxCell>
        <mxCell id="tHn3hV1QetHWKN7MrOAW-24" value="&lt;font style=&quot;font-size: 16px;&quot;&gt;Error Message&lt;/font&gt;" style="rounded=1;whiteSpace=wrap;html=1;fontSize=12;glass=0;strokeWidth=1;shadow=0;fillColor=#e51400;strokeColor=#B20000;fontColor=#ffffff;gradientColor=none;perimeterSpacing=0;fontStyle=1" vertex="1" parent="WIyWlLk6GJQsqaUBKTNV-1">
          <mxGeometry x="1304" y="800" width="120" height="40" as="geometry" />
        </mxCell>
        <mxCell id="tHn3hV1QetHWKN7MrOAW-32" style="edgeStyle=orthogonalEdgeStyle;rounded=0;orthogonalLoop=1;jettySize=auto;html=1;exitX=0.5;exitY=1;exitDx=0;exitDy=0;entryX=0.5;entryY=0;entryDx=0;entryDy=0;strokeColor=#000000;fontStyle=1" edge="1" parent="WIyWlLk6GJQsqaUBKTNV-1" source="tHn3hV1QetHWKN7MrOAW-26" target="tHn3hV1QetHWKN7MrOAW-29">
          <mxGeometry relative="1" as="geometry" />
        </mxCell>
        <mxCell id="tHn3hV1QetHWKN7MrOAW-34" style="edgeStyle=orthogonalEdgeStyle;rounded=0;orthogonalLoop=1;jettySize=auto;html=1;exitX=1;exitY=0.5;exitDx=0;exitDy=0;entryX=0;entryY=0.5;entryDx=0;entryDy=0;strokeColor=#000000;fontStyle=1" edge="1" parent="WIyWlLk6GJQsqaUBKTNV-1" source="tHn3hV1QetHWKN7MrOAW-26" target="tHn3hV1QetHWKN7MrOAW-33">
          <mxGeometry relative="1" as="geometry" />
        </mxCell>
        <mxCell id="tHn3hV1QetHWKN7MrOAW-26" value="&lt;div style=&quot;font-size: 16px;&quot;&gt;&lt;font color=&quot;#080808&quot; style=&quot;font-size: 16px;&quot;&gt;If input is&amp;nbsp;&lt;/font&gt;&lt;/div&gt;&lt;div style=&quot;font-size: 16px;&quot;&gt;&lt;font color=&quot;#080808&quot; style=&quot;font-size: 16px;&quot;&gt;not empty&lt;/font&gt;&lt;/div&gt;" style="rhombus;whiteSpace=wrap;html=1;shadow=0;fontFamily=Helvetica;fontSize=12;align=center;strokeWidth=1;spacing=6;spacingTop=-4;fillColor=#d5e8d4;gradientColor=#97d077;strokeColor=#82b366;fontStyle=1" vertex="1" parent="WIyWlLk6GJQsqaUBKTNV-1">
          <mxGeometry x="1037" y="1015" width="160" height="130" as="geometry" />
        </mxCell>
        <mxCell id="tHn3hV1QetHWKN7MrOAW-37" style="edgeStyle=orthogonalEdgeStyle;rounded=0;orthogonalLoop=1;jettySize=auto;html=1;exitX=0.5;exitY=1;exitDx=0;exitDy=0;entryX=0.5;entryY=0;entryDx=0;entryDy=0;strokeColor=#000000;fontStyle=1" edge="1" parent="WIyWlLk6GJQsqaUBKTNV-1" source="tHn3hV1QetHWKN7MrOAW-29" target="tHn3hV1QetHWKN7MrOAW-36">
          <mxGeometry relative="1" as="geometry" />
        </mxCell>
        <mxCell id="tHn3hV1QetHWKN7MrOAW-29" value="&lt;span style=&quot;text-align: left;&quot;&gt;&lt;font style=&quot;font-size: 16px;&quot;&gt;Generate Response&lt;/font&gt;&lt;/span&gt;" style="rounded=1;whiteSpace=wrap;html=1;fontSize=12;glass=0;strokeWidth=1;shadow=0;fillColor=#1ba1e2;fontColor=#ffffff;strokeColor=#006EAF;fontStyle=1" vertex="1" parent="WIyWlLk6GJQsqaUBKTNV-1">
          <mxGeometry x="917" y="1185" width="120" height="40" as="geometry" />
        </mxCell>
        <mxCell id="tHn3hV1QetHWKN7MrOAW-31" style="edgeStyle=orthogonalEdgeStyle;rounded=0;orthogonalLoop=1;jettySize=auto;html=1;exitX=0.5;exitY=1;exitDx=0;exitDy=0;entryX=0.5;entryY=0;entryDx=0;entryDy=0;strokeColor=#000000;fontStyle=1" edge="1" parent="WIyWlLk6GJQsqaUBKTNV-1" source="tHn3hV1QetHWKN7MrOAW-30" target="tHn3hV1QetHWKN7MrOAW-1">
          <mxGeometry relative="1" as="geometry" />
        </mxCell>
        <mxCell id="tHn3hV1QetHWKN7MrOAW-30" value="&lt;font style=&quot;font-size: 16px;&quot;&gt;&lt;span&gt;Start&lt;/span&gt;&lt;/font&gt;" style="ellipse;whiteSpace=wrap;html=1;fillColor=#008a00;strokeColor=#005700;fontColor=#ffffff;fontStyle=1" vertex="1" parent="WIyWlLk6GJQsqaUBKTNV-1">
          <mxGeometry x="937" y="205" width="120" height="80" as="geometry" />
        </mxCell>
        <mxCell id="tHn3hV1QetHWKN7MrOAW-33" value="&lt;font style=&quot;font-size: 16px;&quot;&gt;Error Message&lt;/font&gt;" style="rounded=1;whiteSpace=wrap;html=1;fontSize=12;glass=0;strokeWidth=1;shadow=0;fillColor=#e51400;fontColor=#ffffff;strokeColor=#B20000;fontStyle=1" vertex="1" parent="WIyWlLk6GJQsqaUBKTNV-1">
          <mxGeometry x="1307" y="1060" width="120" height="40" as="geometry" />
        </mxCell>
        <mxCell id="tHn3hV1QetHWKN7MrOAW-36" value="&lt;font style=&quot;font-size: 18px;&quot;&gt;&lt;span&gt;Stop&lt;/span&gt;&lt;/font&gt;" style="ellipse;whiteSpace=wrap;html=1;fillColor=#e51400;fontColor=#ffffff;strokeColor=#B20000;fontStyle=1" vertex="1" parent="WIyWlLk6GJQsqaUBKTNV-1">
          <mxGeometry x="1067" y="1265" width="120" height="80" as="geometry" />
        </mxCell>
      </root>
    </mxGraphModel>
  </diagram>
</mxfile>
